<svg width="24" height="24" viewBox="0 0 24 24" fill="none" xmlns="http://www.w3.org/2000/svg">
    <path fill-rule="evenodd" clip-rule="evenodd"
        d="M19.9998 4H6.50439V6.25H4V8.75H6.50439V10.75H4V13.25H6.50439V15.25H4V17.75H6.50439V20H19.9998V4ZM12.75 9.25C12.75 8.83579 13.0858 8.5 13.5 8.5C13.9142 8.5 14.25 8.83579 14.25 9.25C14.25 9.45572 14.1688 9.64007 14.0338 9.77682L12.6161 11.1945L12.25 11.5606V12.0784V13.4952H14.75V12.5962L15.8038 11.5424L15.8073 11.5389C16.3887 10.9528 16.75 10.1424 16.75 9.25C16.75 7.45507 15.2949 6 13.5 6C11.7051 6 10.25 7.45507 10.25 9.25H12.75ZM14.75 17.9922V15.4922H12.25V17.9922H14.75Z"
        fill="#929AA5" />
</svg>
